<svg xmlns="http://www.w3.org/2000/svg" version="1.1" xmlns:xlink="http://www.w3.org/1999/xlink" xmlns:svgjs="http://svgjs.dev/svgjs" width="1500" height="1500" viewBox="0 0 1500 1500"><rect width="1500" height="1500" fill="#ffffff"></rect><g transform="matrix(0.6666666666666666,0,0,0.6666666666666666,249.39393939393938,668.2651839597157)"><svg viewBox="0 0 396 64" data-background-color="#ffffff" preserveAspectRatio="xMidYMid meet" height="242" width="1500" xmlns="http://www.w3.org/2000/svg" xmlns:xlink="http://www.w3.org/1999/xlink"><g id="tight-bounds" transform="matrix(1,0,0,1,0.2400000000000091,0.4237286771376034)"><svg viewBox="0 0 395.52 63.1525426457248" height="63.1525426457248" width="395.52"><g><svg viewBox="0 0 530.7462687754585 84.74407456740863" height="63.1525426457248" width="395.52"><g><rect width="5.5298900871012036" height="61.62647969627037" x="115.220226627883" y="11.55879743556913" fill="#636365" opacity="1" stroke-width="0" stroke="transparent" fill-opacity="1" class="rect-yte-0" data-fill-palette-color="secondary" rx="1%" id="yte-0" data-palette-color="#636365"></rect></g><g transform="matrix(1,0,0,1,135.22626877545855,11.712097136306117)"><svg viewBox="0 0 395.52 61.3198802947964" height="61.3198802947964" width="395.52"><g id="textblocktransform"><svg viewBox="0 0 395.52 61.3198802947964" height="61.3198802947964" width="395.52" id="textblock"><g><svg viewBox="0 0 395.52 61.3198802947964" height="61.3198802947964" width="395.52"><g transform="matrix(1,0,0,1,0,0)"><svg width="395.52" viewBox="1.828871480559 -38.38 252.251128519441 39.11" height="61.3198802947964" data-palette-color="#11142d"><path d="M22.75-33.08L22.75-33.08Q24.1-31.2 25.5-28.23 26.9-25.27 28.22-21.73 29.54-18.19 30.6-14.49 31.67-10.79 32.35-7.37 33.03-3.96 33.13-1.29L33.13-1.29Q33.15 0 31.96 0L31.96 0 26.05 0Q24.9 0 24.85-1.15L24.85-1.15Q24.76-3.88 23.97-7.79L23.97-7.79 10.64-7.79Q9.96-3.98 9.86-1.15L9.86-1.15Q9.81 0 8.62 0L8.62 0 2.83 0Q2.39 0 2.1-0.26 1.81-0.51 1.83-1.15L1.83-1.15Q1.95-3.86 2.62-7.31 3.3-10.77 4.37-14.48 5.44-18.19 6.76-21.74 8.08-25.29 9.5-28.25 10.91-31.2 12.26-33.08L12.26-33.08Q12.96-34.08 13.76-34.55 14.55-35.01 15.72-35.01L15.72-35.01 19.24-35.01Q20.43-35.01 21.24-34.55 22.05-34.08 22.75-33.08ZM17.38-27.29L17.24-27.29Q15.63-24.73 14.28-21.17 12.94-17.6 11.96-13.84L11.96-13.84 22.56-13.84Q21.53-17.6 20.19-21.17 18.85-24.73 17.38-27.29L17.38-27.29ZM45.97-22.17L45.97-20.36 46.07-20.36Q47.9-25.44 52.66-25.44L52.66-25.44Q53.27-25.44 53.66-25.38 54.05-25.32 54.2-25.27L54.2-25.27Q54.56-25.15 54.56-24.71L54.56-24.71 54.56-18.82Q54.56-18.07 53.68-18.41L53.68-18.41Q53.39-18.53 52.84-18.66 52.29-18.8 51.32-18.8L51.32-18.8Q48.8-18.8 47.39-16.96 45.97-15.11 45.97-11.94L45.97-11.94 45.97-1.29Q45.97-0.56 45.66-0.28 45.36 0 44.63 0L44.63 0 39.6 0Q38.86 0 38.56-0.28 38.25-0.56 38.25-1.29L38.25-1.29 38.25-21.75Q38.25-22.34 38.5-22.66L38.5-22.66Q39.01-23.34 39.73-24.05 40.45-24.76 41.5-25.56L41.5-25.56Q41.7-25.71 41.89-25.76 42.09-25.81 42.23-25.81L42.23-25.81Q42.58-25.81 42.92-25.56L42.92-25.56Q44.94-23.97 45.75-22.85L45.75-22.85Q45.97-22.56 45.97-22.17L45.97-22.17ZM68.09 0.61L68.09 0.61Q59.93 0.61 59.93-7.86L59.93-7.86 59.93-19.31 57.17-19.31Q56.44-19.31 56.16-19.62 55.88-19.92 55.88-20.65L55.88-20.65 55.88-23.66Q55.88-24.39 56.16-24.69 56.44-25 57.17-25L57.17-25 59.93-25 59.93-28.93Q59.93-29.52 60.18-29.83L60.18-29.83Q61.2-31.18 63.18-32.74L63.18-32.74Q63.52-32.98 63.79-32.98L63.79-32.98Q64.08-32.98 64.37-32.74L64.37-32.74Q65.42-31.93 66.14-31.23 66.87-30.52 67.38-29.83L67.38-29.83Q67.62-29.52 67.62-28.93L67.62-28.93 67.62-25 71.94-25Q72.68-25 72.96-24.69 73.24-24.39 73.24-23.66L73.24-23.66 73.24-20.65Q73.24-19.92 72.96-19.62 72.68-19.31 71.94-19.31L71.94-19.31 67.62-19.31 67.62-9.2Q67.62-5.3 70.45-5.3L70.45-5.3Q70.89-5.3 71.26-5.38 71.63-5.47 71.89-5.57L71.89-5.57Q72.41-5.76 72.61-5.71 72.82-5.66 72.99-5.18L72.99-5.18 74.41-1.39Q74.63-0.78 74.12-0.51L74.12-0.51Q73.75-0.34 72.35 0.13 70.94 0.61 68.09 0.61ZM77.36-33.2L77.36-33.2Q77.36-33.52 77.56-33.76 77.75-34.01 78.07-34.4L78.07-34.4Q78.75-35.18 79.66-36.05 80.56-36.91 81.49-37.72L81.49-37.72Q82.07-38.18 82.37-38.18L82.37-38.18Q82.66-38.18 83.27-37.72L83.27-37.72Q85.25-36.01 86.64-34.4L86.64-34.4Q86.96-34.03 87.16-33.78 87.37-33.52 87.37-33.2L87.37-33.2Q87.37-32.89 87.16-32.64 86.96-32.4 86.61-31.98L86.61-31.98Q85.95-31.23 85.08-30.36 84.2-29.49 83.27-28.71L83.27-28.71Q82.93-28.42 82.73-28.33 82.54-28.25 82.37-28.25L82.37-28.25Q82.19-28.25 82.01-28.33 81.83-28.42 81.44-28.71L81.44-28.71Q80.46-29.49 79.61-30.36 78.75-31.23 78.07-32.03L78.07-32.03Q77.75-32.42 77.56-32.65 77.36-32.89 77.36-33.2ZM86.2-23.71L86.2-1.29Q86.2-0.56 85.89-0.28 85.59 0 84.86 0L84.86 0 79.83 0Q79.09 0 78.79-0.28 78.48-0.56 78.48-1.29L78.48-1.29 78.48-23.71Q78.48-24.44 78.79-24.72 79.09-25 79.83-25L79.83-25 84.86-25Q85.59-25 85.89-24.72 86.2-24.44 86.2-23.71L86.2-23.71ZM105.29-25.61L105.29-25.61Q108.19-25.61 109.51-25.13 110.83-24.66 111.17-24.39L111.17-24.39Q111.71-24.05 112-23.51L112-23.51Q112.17-23.24 112.39-22.58 112.61-21.92 112.71-21.14L112.71-21.14Q112.83-20.53 112.73-20.28 112.64-20.02 112.12-19.65L112.12-19.65Q111.54-19.26 110.84-18.96 110.15-18.65 109.71-18.53L109.71-18.53Q109.34-18.43 109.15-18.48 108.95-18.53 108.61-18.77L108.61-18.77Q108.22-19.04 107.51-19.37 106.8-19.7 105.56-19.7L105.56-19.7Q103.97-19.7 102.54-18.92 101.11-18.14 100.22-16.58 99.33-15.01 99.33-12.67L99.33-12.67Q99.33-9.16 101.17-7.23 103.02-5.3 106.12-5.3L106.12-5.3Q107.7-5.3 108.75-5.63 109.8-5.96 110.41-6.3L110.41-6.3Q110.9-6.57 111.16-6.43 111.42-6.3 111.56-5.96L111.56-5.96 113.34-1.93Q113.61-1.29 113.05-1.03L113.05-1.03Q112.15-0.56 110.07 0.02 108 0.61 104.95 0.61L104.95 0.61Q98.82 0.61 95.16-2.65 91.49-5.91 91.49-12.4L91.49-12.4Q91.49-16.55 93.18-19.51 94.86-22.46 97.96-24.04 101.06-25.61 105.29-25.61ZM125.62-1.83L120.52 0.51Q120.01 0.73 119.79 0.73L119.79 0.73Q119.57 0.73 119.32 0.56L119.32 0.56Q118.76 0.17 118.04-1.35 117.32-2.88 117.32-6.05L117.32-6.05 117.32-34.33Q117.32-34.91 117.57-35.23L117.57-35.23Q118.59-36.57 120.57-38.13L120.57-38.13Q120.91-38.38 121.18-38.38L121.18-38.38Q121.5-38.38 121.79-38.13L121.79-38.13Q122.84-37.33 123.56-36.62 124.28-35.91 124.79-35.23L124.79-35.23Q125.04-34.91 125.04-34.33L125.04-34.33 125.04-7.54Q125.04-5.93 125.3-4.8 125.57-3.66 125.94-2.98L125.94-2.98Q126.35-2.17 125.62-1.83L125.62-1.83ZM143.98 0.61L143.98 0.61Q139.85 0.61 136.8-0.72 133.75-2.05 132.07-4.86 130.38-7.67 130.38-12.11L130.38-12.11Q130.38-18.77 133.8-22.19 137.22-25.61 142.88-25.61L142.88-25.61Q146.57-25.61 149.12-24.29 151.67-22.97 153-20.65 154.33-18.33 154.33-15.36L154.33-15.36Q154.33-12.45 152.84-11.3 151.35-10.16 148.5-10.16L148.5-10.16 138.02-10.16Q138.22-7.64 139.87-6.32 141.51-5 144.35-5L144.35-5Q146.59-5 147.95-5.68 149.3-6.35 149.84-6.74L149.84-6.74Q150.3-7.08 150.89-7.06L150.89-7.06Q151.35-7.06 152.22-6.87 153.09-6.69 153.94-6.2L153.94-6.2Q154.55-5.88 154.55-5.32L154.55-5.32Q154.55-5 154.43-4.42L154.43-4.42Q154.36-4.08 154.18-3.43 154.01-2.78 153.74-2.22L153.74-2.22Q153.6-1.95 153.28-1.71L153.28-1.71Q152.79-1.37 151.71-0.81 150.62-0.24 148.74 0.18 146.86 0.61 143.98 0.61ZM137.97-15.16L137.97-15.16 145.93-15.16Q147.18-15.16 147.18-16.31L147.18-16.31Q147.18-18.04 146.09-19.23 145-20.41 142.83-20.41L142.83-20.41Q140.46-20.41 139.35-18.9 138.24-17.38 137.97-15.16ZM182.7-21.04L182.7-31.1Q182.7-31.81 182.94-32.18L182.94-32.18Q184.04-33.79 186.02-35.57L186.02-35.57Q186.38-35.86 186.65-35.86L186.65-35.86Q186.95-35.86 187.26-35.57L187.26-35.57Q188.34-34.64 189.07-33.8 189.8-32.96 190.34-32.18L190.34-32.18Q190.58-31.79 190.58-31.1L190.58-31.1 190.58-1.29Q190.58-0.56 190.28-0.28 189.97 0 189.24 0L189.24 0 184.04 0Q183.31 0 183-0.28 182.7-0.56 182.7-1.29L182.7-1.29 182.7-14.26 168.2-14.26 168.2-1.29Q168.2-0.56 167.89-0.28 167.59 0 166.85 0L166.85 0 161.65 0Q160.92 0 160.61-0.28 160.31-0.56 160.31-1.29L160.31-1.29 160.31-33.72Q160.31-34.45 160.61-34.73 160.92-35.01 161.65-35.01L161.65-35.01 166.85-35.01Q167.59-35.01 167.89-34.73 168.2-34.45 168.2-33.72L168.2-33.72 168.2-21.04 182.7-21.04ZM206.5 0.61L206.5 0.61Q197.81 0.61 197.81-9.91L197.81-9.91 197.78-22.31Q197.78-22.9 198.03-23.22L198.03-23.22Q199.05-24.56 201.03-26.12L201.03-26.12Q201.37-26.37 201.64-26.37L201.64-26.37Q201.96-26.37 202.25-26.12L202.25-26.12Q203.3-25.32 204.02-24.61 204.74-23.9 205.25-23.22L205.25-23.22Q205.5-22.9 205.5-22.31L205.5-22.31 205.5-10.6Q205.5-5.3 209.7-5.3L209.7-5.3Q211.77-5.3 213.02-6.75 214.26-8.2 214.26-10.69L214.26-10.69 214.26-22.31Q214.26-22.9 214.51-23.22L214.51-23.22Q215.53-24.56 217.51-26.12L217.51-26.12Q217.85-26.37 218.12-26.37L218.12-26.37Q218.44-26.37 218.73-26.12L218.73-26.12Q219.78-25.32 220.5-24.61 221.22-23.9 221.73-23.22L221.73-23.22Q221.98-22.9 221.98-22.31L221.98-22.31 221.98-1.12Q221.98-0.66 221.66-0.33 221.34 0 220.85 0L220.85 0 217.19 0Q216.8 0 216.5-0.11 216.19-0.22 215.92-0.54L215.92-0.54 214.41-2.49 214.24-2.49Q213.85-1.93 213.03-1.2 212.21-0.46 210.66 0.07 209.11 0.61 206.5 0.61ZM240.04 0.61L240.04 0.61Q236.89 0.61 234.74 0.15 232.59-0.32 231.13-1 229.67-1.68 228.57-2.37L228.57-2.37 228.57-34.33Q228.57-34.91 228.81-35.23L228.81-35.23Q229.84-36.57 231.81-38.13L231.81-38.13Q232.16-38.38 232.42-38.38L232.42-38.38Q232.74-38.38 233.03-38.13L233.03-38.13Q234.08-37.33 234.8-36.62 235.52-35.91 236.04-35.23L236.04-35.23Q236.28-34.91 236.28-34.33L236.28-34.33 236.28-22.49 236.38-22.49Q237.36-23.73 239.09-24.67 240.82-25.61 243.92-25.61L243.92-25.61Q247.39-25.61 249.64-24.01 251.88-22.41 252.98-19.62 254.08-16.82 254.08-13.21L254.08-13.21Q254.08-9.3 252.79-6.16 251.49-3.03 248.43-1.21 245.36 0.61 240.04 0.61ZM240.36-5.3L240.36-5.3Q243.19-5.3 244.68-7.19 246.17-9.08 246.17-12.6L246.17-12.6Q246.17-16.16 244.84-17.77 243.51-19.38 240.99-19.38L240.99-19.38Q238.97-19.38 237.9-18.55 236.84-17.72 236.28-16.46L236.28-16.46 236.28-6.37Q236.82-5.98 237.81-5.64 238.8-5.3 240.36-5.3Z" opacity="1" transform="matrix(1,0,0,1,0,0)" fill="#11142d" class="wordmark-text-0" data-fill-palette-color="primary" id="text-0"></path></svg></g></svg></g></svg></g></svg></g><g><svg viewBox="0 0 100.74407456740863 84.74407456740863" height="84.74407456740863" width="100.74407456740863"><g><svg xmlns="http://www.w3.org/2000/svg" xmlns:xlink="http://www.w3.org/1999/xlink" version="1.1" x="8" y="0" viewBox="8 8 84 84" enable-background="new 0 0 100 100" xml:space="preserve" height="84.74407456740863" width="84.74407456740863" class="icon-icon-0" data-fill-palette-color="accent" id="icon-0"><path d="M90 10V90H10V10zM92 8H8V92H92z" fill="#1877f2" data-fill-palette-color="accent"></path><g fill="#1877f2" data-fill-palette-color="accent"><rect x="15" y="15" width="70" height="12" fill="#1877f2" data-fill-palette-color="accent"></rect></g><g fill="#1877f2" data-fill-palette-color="accent"><rect x="67" y="32" width="18" height="53" fill="#1877f2" data-fill-palette-color="accent"></rect></g><path d="M58 34V49H42V34zM60 32H40V51H60z" fill="#1877f2" data-fill-palette-color="accent"></path><rect x="15" y="32" width="18" height="2" fill="#1877f2" data-fill-palette-color="accent"></rect><rect x="15" y="40" width="18" height="2" fill="#1877f2" data-fill-palette-color="accent"></rect><rect x="15" y="49" width="18" height="2" fill="#1877f2" data-fill-palette-color="accent"></rect><rect x="15" y="58" width="45" height="2" fill="#1877f2" data-fill-palette-color="accent"></rect><rect x="15" y="66" width="45" height="2" fill="#1877f2" data-fill-palette-color="accent"></rect><rect x="15" y="74" width="45" height="2" fill="#1877f2" data-fill-palette-color="accent"></rect><rect x="15" y="83" width="45" height="2" fill="#1877f2" data-fill-palette-color="accent"></rect></svg></g></svg></g></svg></g><defs></defs></svg><rect width="395.52" height="63.1525426457248" fill="none" stroke="none" visibility="hidden"></rect></g></svg></g></svg>